Coordinates
version=1
nRows=8
nColumns=36
inDegrees=yes

Units are S.I. units (second, meters, Newtons, ...)
If the header above contains a line with 'inDegrees', this indicates whether rotational values are in degrees (yes) or radians (no).

endheader
time	pelvis_tilt	pelvis_list	pelvis_rotation	pelvis_tx	pelvis_ty	pelvis_tz	hip_flexion_r	hip_adduction_r	hip_rotation_r	knee_angle_r	knee_angle_r_beta	ankle_angle_r	subtalar_angle_r	mtp_angle_r	hip_flexion_l	hip_adduction_l	hip_rotation_l	knee_angle_l	knee_angle_l_beta	ankle_angle_l	subtalar_angle_l	mtp_angle_l	lumbar_extension	lumbar_bending	lumbar_rotation	arm_flex_r	arm_add_r	arm_rot_r	elbow_flex_r	pro_sup_r	arm_flex_l	arm_add_l	arm_rot_l	elbow_flex_l	pro_sup_l
      1.45000000	    -15.23041508	     -2.12321094	      5.22896657	     -0.30662808	      1.38092410	     -0.09182548	     17.44908877	     -6.54705181	    -12.00531044	     28.90509395	      0.50448906	    -35.75732227	    -22.27219225	     -7.49999987	     16.85502418	     -5.71038110	      4.13413370	     17.38752528	      0.30346956	    -29.05685889	     -9.65743473	     -7.49999987	     -4.25504908	      2.25803166	     -4.43247423	     24.20073209	    -26.11979504	     27.85636428	    148.32841119	     94.69787233	     26.25920553	    -20.72819709	     30.67538711	    148.86423736	     88.85752918
      1.45416670	    -15.48954000	     -2.51375926	      5.40141659	     -0.30542944	      1.38050814	     -0.09269490	     18.66782618	     -6.35585844	    -12.35449750	     29.36663141	      0.51254441	    -33.04341012	    -20.22949782	     -7.49999987	     17.66553672	     -6.18358505	      3.53006439	     16.75946057	      0.29250777	    -28.35983695	     -9.21596289	     -7.49999987	     -4.94801970	      2.56443650	     -4.66816515	     23.88651261	    -26.03948174	     26.57813508	    148.08733588	     96.89782703	     26.20731409	    -20.93465971	     30.22365881	    148.85184734	     90.85068583
      1.45833330	    -15.75948226	     -2.16044814	      6.43041186	     -0.29496242	      1.37427078	     -0.09304551	     18.97735673	     -6.90667513	    -12.26777216	     29.32809437	      0.51187181	    -28.75065644	    -17.79619961	     -7.49999987	     19.11035367	     -5.64943665	      2.15163757	     17.99520242	      0.31407553	    -29.26738356	    -11.85212454	     -7.49999987	     -5.36350282	      1.64335603	     -5.29031110	     22.92177941	    -25.66293147	     25.33878826	    147.86290572	     94.24764448	     26.92790020	    -21.36028610	     30.57544501	    148.82925831	     88.37500618
      1.46250000	    -15.87923802	     -2.07800617	      6.61161840	     -0.29371973	      1.37640695	     -0.09473950	     19.22103314	     -7.10865003	    -11.28379796	     28.20984902	      0.49235475	    -28.05051652	    -17.50095883	     -7.49999987	     20.09709159	     -5.20050569	      2.01414868	     18.31100339	      0.31958730	    -29.30481968	    -11.66527152	     -7.49999987	     -5.85165345	      1.33536283	     -5.53639430	     22.90582881	    -25.68249034	     25.17500728	    147.73965871	     94.32829483	     27.25967626	    -21.39048048	     30.51720660	    148.72474402	     88.43991683
      1.46666670	    -16.27632956	     -2.31646752	      6.97452248	     -0.28831335	      1.36508181	     -0.09060008	     19.81795917	     -6.88503492	    -10.23608380	     28.04275878	      0.48943847	    -26.77061242	    -17.16940548	     -7.49999987	     21.61561531	     -5.35013318	      1.27415846	     19.45567082	      0.33956551	    -27.99881146	    -10.94006580	     -7.49999987	     -5.55146312	      1.29627563	     -5.25543077	     21.94234367	    -25.70799979	     22.89515220	    147.78413850	     97.80898498	     28.37658831	    -21.32069913	     31.34092440	    148.64588433	     91.36809408
      1.47083330	    -16.10544717	     -2.65080292	      6.70999910	     -0.28178756	      1.37144942	     -0.08758609	     20.16129697	     -6.18789501	     -9.68333487	     28.18186457	      0.49186633	    -29.03884023	    -20.47627550	     -7.49999987	     22.15183825	     -5.87314479	      1.37023063	     19.37930675	      0.33823271	    -27.79855620	    -10.05833122	     -7.49999987	     -6.03657818	      1.64723770	     -4.60785517	     21.67652810	    -25.87074087	     22.64097303	    147.60808785	     97.33139183	     28.81499876	    -21.02450722	     31.62652162	    148.68798614	     90.96693008
      1.47500000	    -15.66433541	     -2.73068902	      6.37629229	     -0.27146383	      1.36710496	     -0.08716507	     19.92125672	     -5.68904123	     -9.23699919	     27.52734646	      0.48044283	    -31.33949277	    -23.69989021	     -7.49999987	     22.00183619	     -6.37167949	      2.03451250	     19.15460049	      0.33431085	    -26.11510625	    -10.68797737	     -7.49999987	     -6.28656660	      1.68055812	     -3.95346408	     21.13320072	    -26.01235259	     22.50141566	    147.41700392	     96.00188281	     29.33495704	    -20.56914134	     32.10470626	    148.69117857	     89.83096683
      1.47916670	    -15.42700896	     -2.87734400	      6.04308275	     -0.26553456	      1.36597716	     -0.08340193	     20.00180150	     -5.12912384	     -8.60695716	     27.11549841	      0.47325473	    -32.66421276	    -25.69678237	     -7.49999987	     21.87453157	     -7.06004976	      2.29791848	     18.34762463	      0.32022646	    -26.76498170	    -10.03763241	     -7.49999987	     -6.35527607	      1.75511027	     -2.96663258	     19.81845371	    -26.27654009	     21.98036025	    147.57112066	     97.50954552	     29.66441483	    -20.18357463	     33.52682094	    148.66281184	     91.47198710
